<svg width="324" height="282" viewBox="0 0 324 282" fill="none" xmlns="http://www.w3.org/2000/svg">
<path d="M318.072 249.068C318.072 267.115 303.442 281.745 285.395 281.745C267.348 281.745 252.718 267.115 252.718 249.068C252.718 231.021 267.348 216.391 285.395 216.391C303.442 216.391 318.072 231.021 318.072 249.068Z" fill="#5D46B8"/>
<path d="M141.04 141.523C143.755 180.272 114.545 213.884 75.7962 216.599C37.0479 219.314 3.43522 190.104 0.720214 151.355C-1.99479 112.607 27.216 78.9942 65.9644 76.2792C104.713 73.5642 138.325 102.775 141.04 141.523Z" fill="#5D46B8"/>
<path d="M323.246 114.441C326.491 160.761 291.572 200.941 245.253 204.187C198.933 207.432 158.752 172.514 155.506 126.194C152.261 79.8741 187.18 39.6934 233.499 36.4479C279.819 33.2023 320 68.121 323.246 114.441Z" fill="#5D46B8"/>
<path d="M243.724 85.9761C247.281 136.75 209.005 180.794 158.231 184.352C107.458 187.909 63.4135 149.633 59.8559 98.8592C56.2983 48.0856 94.5746 4.04135 145.348 0.48376C196.122 -3.07383 240.166 35.2024 243.724 85.9761Z" fill="#5D46B8"/>
<path fill-rule="evenodd" clip-rule="evenodd" d="M252.917 203.31C250.399 203.718 247.841 204.016 245.248 204.198C220.143 205.957 196.844 196.506 180.248 180.104C173.259 182.367 165.884 183.826 158.227 184.362C147.294 185.128 136.672 183.955 126.701 181.135C115.436 200.837 94.8601 214.735 70.5201 216.44C68.6831 216.569 66.8572 216.626 65.0459 216.613C96.1318 218.127 127.433 217.811 158.795 215.613C190.551 213.388 221.975 209.263 252.917 203.31Z" fill="#5D46B8"/>
</svg>
