<?xml version="1.0" standalone="no"?>
<!DOCTYPE svg PUBLIC "-//W3C//DTD SVG 20010904//EN"
 "http://www.w3.org/TR/2001/REC-SVG-20010904/DTD/svg10.dtd">
<svg version="1.0" xmlns="http://www.w3.org/2000/svg"
 width="1293.000000pt" height="1293.000000pt" viewBox="0 0 1293.000000 1293.000000"
 preserveAspectRatio="xMidYMid meet">
<metadata>
Created by potrace 1.14, written by Peter Selinger 2001-2017
</metadata>
<g transform="translate(0.000000,1293.000000) scale(0.100000,-0.100000)"
fill="#000000" stroke="none">
<path d="M5858 12086 c-1 -2 -43 -6 -93 -10 -383 -29 -783 -129 -1150 -286
-133 -57 -355 -170 -440 -225 -31 -19 -59 -35 -64 -35 -5 0 -11 -3 -13 -7 -1
-5 -52 -41 -113 -82 -60 -41 -112 -77 -115 -80 -3 -3 -32 -26 -65 -51 -160
-118 -427 -379 -576 -560 -387 -474 -641 -1002 -767 -1598 -25 -117 -29 -125
-52 -129 -14 -2 -47 -8 -75 -13 -27 -5 -64 -12 -81 -15 -106 -17 -372 -101
-524 -164 -203 -86 -462 -241 -648 -388 -86 -68 -324 -298 -392 -378 -330
-388 -558 -890 -635 -1395 -4 -25 -9 -54 -11 -65 -24 -125 -24 -563 0 -720 3
-16 8 -52 12 -80 4 -27 8 -54 10 -60 1 -5 5 -26 9 -45 41 -226 122 -466 235
-695 81 -164 102 -200 183 -320 245 -364 553 -655 932 -878 55 -32 329 -165
375 -182 322 -116 530 -163 830 -189 93 -8 518 -24 840 -31 210 -5 1186 -5
1360 0 199 5 542 16 620 20 41 2 136 6 210 10 149 7 242 12 370 20 47 3 123 7
170 10 47 3 112 7 145 10 33 3 96 7 140 10 122 9 247 19 375 30 25 2 74 7 110
10 36 3 92 8 125 11 33 4 74 8 90 9 84 7 174 16 205 20 19 3 62 7 95 11 33 3
74 7 90 9 17 2 57 6 90 10 33 3 74 8 90 10 17 2 51 6 78 9 70 9 139 17 167 21
14 2 70 9 125 15 141 18 141 18 182 24 21 3 61 8 88 11 28 3 77 10 110 15 114
17 140 21 180 26 36 4 119 17 185 28 14 3 47 7 73 11 26 3 69 10 95 15 26 4
67 11 92 15 25 3 70 10 100 15 30 5 71 11 90 14 19 3 46 8 60 10 64 12 328 58
355 62 17 3 41 7 55 10 14 3 36 8 50 10 14 3 95 18 180 34 85 16 168 31 184
34 198 36 455 111 626 183 19 8 44 18 55 22 128 49 440 220 585 320 67 46 221
160 230 170 3 4 34 31 70 60 78 66 287 275 350 350 25 30 57 68 71 85 67 81
172 229 247 349 173 276 347 694 407 977 2 8 8 35 14 60 7 25 13 56 16 70 2
14 10 63 19 110 27 157 31 223 31 550 0 291 -7 422 -31 544 -76 399 -145 613
-301 936 -86 178 -219 397 -317 522 -12 14 -32 41 -46 59 -94 125 -245 288
-377 409 -191 176 -402 329 -628 458 -91 51 -337 172 -352 172 -4 0 -21 7 -36
15 -49 25 -319 113 -442 144 -179 44 -331 71 -510 88 -159 15 -696 6 -726 -13
-4 -2 -35 -6 -70 -10 l-64 -6 -59 77 c-69 88 -74 94 -164 194 -114 127 -297
301 -403 383 -16 12 -40 31 -52 41 -45 38 -195 144 -282 199 -49 32 -95 62
-102 68 -7 5 -14 10 -16 10 -2 0 -50 26 -108 58 -188 104 -403 197 -619 269
-101 33 -343 98 -405 108 -16 3 -52 10 -80 15 -83 15 -150 25 -325 45 -55 7
-545 16 -552 11z"/>
<path d="M11377 3444 c-1 -1 -38 -4 -82 -7 -87 -6 -208 -30 -268 -53 -20 -7
-38 -14 -40 -13 -12 3 -155 -62 -222 -100 -329 -191 -560 -518 -637 -901 -14
-71 -18 -356 -5 -431 30 -186 96 -355 202 -520 56 -87 73 -107 180 -214 196
-196 434 -314 728 -363 55 -9 297 -8 367 1 137 18 342 86 443 148 26 16 50 29
53 29 18 0 200 149 264 216 76 79 170 202 170 222 0 6 3 12 8 14 11 5 58 96
91 180 61 154 92 310 93 471 0 87 -7 188 -17 232 -22 102 -35 155 -45 185
-112 334 -352 613 -659 765 -91 45 -242 99 -301 108 -19 3 -62 10 -95 16 -51
9 -222 20 -228 15z"/>
</g>
</svg>
